<?xml version="1.0" encoding="UTF-8" standalone="no"?>
<!DOCTYPE svg PUBLIC "-//W3C//DTD SVG 1.1//EN"
"http://www.w3.org/Graphics/SVG/1.1/DTD/svg11.dtd">
<svg viewBox="0 0 935 1210" version="1.1" xmlns="http://www.w3.org/2000/svg" xmlns:xlink="http://www.w3.org/1999/xlink">
<defs>
<clipPath id="c0_3"><path d="M710.3,1161.2v-47H849.4v47Z"/></clipPath>
<clipPath id="c1_3"><path d="M46.1,1091.1V53.5H868.9V1091.1Z"/></clipPath>
<style type="text/css"><![CDATA[
.g0_3{
fill: #0168B3;
}
.g1_3{
fill: #EB352D;
}
.g2_3{
fill: #FCCCC7
}
.g3_3{
fill: #cc0000;
}
.g4_3{
fill: none;
stroke: #cc0000;
stroke-width: 0.672;
stroke-linecap: butt;
stroke-linejoin: miter;
}
.g5_3{
fill: none;
stroke: #BCBEC0;
stroke-width: 0.672;
stroke-linecap: butt;
stroke-linejoin: miter;
}
.g6_3{
fill: none;
stroke: #cc0000;
stroke-width: 0.672;
stroke-linecap: round;
stroke-linejoin: miter;
stroke-dasharray: 0,5;
}
.g7_3{
fill: #FFFFFF;
}
.g8_3{
fill: none;
stroke: #E3E4E5;
stroke-width: 0.672;
stroke-linecap: butt;
stroke-linejoin: miter;
stroke-miterlimit: 4;
}
.g9_3{
fill: #E3E4E5;
}
.ga_3{
fill: none;
stroke: #cc0000;
stroke-width: 1.344;
stroke-linecap: butt;
stroke-linejoin: miter;
stroke-miterlimit: 4;
}
.gb_3{
fill: none;
stroke: #cc0000;
stroke-width: 1.527;
stroke-linecap: butt;
stroke-linejoin: miter;
stroke-miterlimit: 4;
}
]]></style>
</defs>

<g clip-path="url(#c0_3)"></g>

<g clip-path="url(#c0_3)"></g>

<path d="M847.8,1160.4h.2v-.5h.2c.1,0,.2,0,.3,.1c0,0,.1,.1,.1,.2v.2h.2v-.3c0,0,0,-.1,-.1,-.2c0,0,-.1,-.1,-.2,-.1q.1,0,.2,0c.1,-.1,.1,-.2,.1,-.3c0,-.1,-.1,-.3,-.2,-.3c-.1,0,-.2,-.1,-.3,-.1h-.5Zm.7,-.7c-.1,0,-.2,.1,-.3,.1H848v-.5h.2q.2,0,.3,0q.1,.1,.1,.2c0,.1,-.1,.2,-.1,.2m.6,-.7c-.2,-.3,-.5,-.4,-.8,-.4c-.3,0,-.6,.1,-.8,.4c-.2,.2,-.4,.5,-.4,.8c0,.3,.2,.6,.4,.8c.2,.2,.5,.3,.8,.3c.3,0,.6,-.1,.8,-.3c.2,-.2,.3,-.5,.3,-.8c0,-.3,-.1,-.6,-.3,-.8m-.1,.1c.2,.2,.3,.4,.3,.7c0,.3,-.1,.5,-.3,.7c-.2,.2,-.4,.3,-.7,.3c-.3,0,-.5,-.1,-.7,-.3c-.2,-.2,-.3,-.4,-.3,-.7c0,-.3,.1,-.5,.3,-.7c.2,-.2,.4,-.3,.7,-.3c.3,0,.5,.1,.7,.3Z" class="g0_3"/>
<path d="M759.9,936.5h9.6V904h-9.6v32.5Z" class="g2_3"/>
<path d="M208,1000.9H61.9V984.7H208v16.2Z" class="g3_3"/>
<path d="M856.6,758.2h-146V741.9h146v16.3Z" class="g2_3"/>
<path d="M210.6,1000.8H353.3l.9,-16H210.6Z" class="g2_3"/>
<path d="M352.7,1000.8H497.8V985H352.7v15.8Z" class="g3_3"/>
<path d="M351.8,968.5h146V953.4h-146v15.1Z" class="g2_3"/>
<path d="M642.9,113.7H778.6V97.5H642.9v16.2Z" class="g2_3"/>
<path d="M158.5,145.8h9.9V129.9h-9.9v15.9Z" class="g2_3"/>
<path d="M816.9,161.8h9.7V146.2h-9.7v15.6Z" class="g2_3"/>
<path d="M61.9,161.9h9.9V146H61.9v15.9Z" class="g2_3"/>
<path d="M289.1,194.1h8.8V178.2h-8.8v15.9Z" class="g2_3"/>
<path d="M352,145.4h96.8V129.9H352v15.5Z" class="g2_3"/>
<path d="M61.7,146.1h96.8V129.9L61.7,130Z" class="g2_3"/>
<path d="M295.2,1049.2H546.4v-16H295.2Z" class="g2_3"/>
<path d="M295.5,1081.4h251v-15.9h-251v15.9Z" class="g2_3"/>
<path d="M595.2,953.2h9.2V936.4h-9.2v16.8Z" class="g2_3"/>
<path d="M672.5,953.2h9.7V936.4h-9.7v16.8Z" class="g2_3"/>
<path d="M749.8,953.2h9.7V936.4h-9.7v16.8Z" class="g2_3"/>
<path d="M178,178.2H323.3V162H178v16.2Z" class="g2_3"/>
<path d="M352.3,162H362V145.9h-9.7V162Z" class="g2_3"/>
<path d="M449.2,145.9h9.6V129.8h-9.6v16.1Z" class="g2_3"/>
<path d="M671.7,162h9.7V145.9h-9.7V162Z" class="g2_3"/>
<path d="M710.4,162h9.7V145.9h-9.7V162Z" class="g2_3"/>
<path d="M508.3,953.2h19.1V936.4H508.3v16.8Z" class="g2_3"/>
<path d="M206.7,968.5H352.9V953.4H206.7v15.1Z" class="g3_3"/>
<path d="M61.9,968.5H207.3V952.8H61.9v15.7Z" class="g2_3"/>
<path d="M61.7,920.3H72.2v-16H61.7v16Z" class="g2_3"/>
<path d="M478.6,258.8h378V242.7h-378v16.1Z" class="g2_3"/>
<path d="M604.1,258.8H730V242.7H604.1v16.1Z" class="g3_3"/>
<path d="M381.4,178.2H856.5V162H381.4v16.2Z" class="g2_3"/>
<path d="M61.9,210.4H856.7V194.3H61.9v16.1Z" class="g2_3"/>
<path d="M158.8,210.3h96.7V194.1H158.8v16.2Z" class="g3_3"/>
<path d="M545.7,97.8H807.2V81.5H545.7V97.8Z" class="g2_3"/>
<path d="M478.3,291.1H856.7V275H478.3v16.1Z" class="g2_3"/>
<path d="M478.2,323.4H856.7V307.3H478.2v16.1Z" class="g2_3"/>
<path d="M61.2,242.7H856.5V226.6H61.2v16.1Z" class="g2_3"/>
<path d="M61.5,371.8H856.6V355.7H61.5v16.1Z" class="g2_3"/>
<path d="M61.5,404.1h795V387.9H61.5v16.2Z" class="g2_3"/>
<path d="M61.5,436.3h795V420.2H61.5v16.1Z" class="g2_3"/>
<path d="M61.5,468.6H856.3V452.5H61.5v16.1Z" class="g2_3"/>
<path d="M61.5,500.8H856.3V484.7H61.5v16.1Z" class="g2_3"/>
<path d="M61.5,533.1H856.6V517H61.5v16.1Z" class="g2_3"/>
<path d="M61.5,565.4H856.6V549.2H61.5v16.2Z" class="g2_3"/>
<path d="M61.5,597.6H856.3V581.5H61.5v16.1Z" class="g2_3"/>
<path d="M61.5,629.9h795V613.8H61.5v16.1Z" class="g2_3"/>
<path d="M61.5,662.2h795V646H61.5v16.2Z" class="g2_3"/>
<path d="M61.5,694.4H856.6V678.3H61.5v16.1Z" class="g2_3"/>
<path d="M61.5,726.7H710.3V710.6H61.5v16.1Z" class="g2_3"/>
<path d="M61.5,823.5h795V807.4H61.5v16.1Z" class="g2_3"/>
<path d="M61.5,855.7h795V839.6H61.5v16.1Z" class="g2_3"/>
<path d="M548.6,968.7h66.2V953.2l-66.2,.1Z" class="g2_3"/>
<path d="M548.5,1000.9h66.4V984.8H548.5v16.1Z" class="g2_3"/>
<path d="M548.4,1033.2l46.8,.1v-16.2H548.4Z" class="g2_3"/>
<path d="M548.4,1065.5h47.1v-16.2H548.4v16.2Z" class="g2_3"/>
<path d="M729.1,1065.5l20,.2v-16.1l-20,-.3Z" class="g2_3"/>
<path d="M729.2,1033.2h19.9v-16.1H729.2v16.1Z" class="g2_3"/>
<path d="M729.5,1001h19.6V984.8H729.3Z" class="g2_3"/>
<path d="M729.3,968.7l19.9,.1l-.1,-15.6l-19.8,.1Z" class="g2_3"/>
<path d="M61.4,953.1H99l.1,-16.7H61.5Z" class="g2_3"/>
<path d="M169.2,953.1h48.3l.1,-16.7H169.4Z" class="g2_3"/>
<path d="M421,953.2h38.4V936.3H421v16.9Z" class="g2_3"/>
<path d="M140.3,936.4h9.4V904.1h-9.4v32.3Z" class="g2_3"/>
<path d="M217.4,936.4h9.7V904.1h-9.7v32.3Z" class="g2_3"/>
<path d="M294.9,936.4h9.7V904.1h-9.7v32.3Z" class="g2_3"/>
<path d="M372.4,936.4H382V904.1h-9.6v32.3Z" class="g2_3"/>
<path d="M449.8,936.4h9.7V904.1h-9.7v32.3Z" class="g2_3"/>
<path d="M527.3,936.4H537V904.1h-9.7v32.3Z" class="g2_3"/>
<path d="M604.8,936.4h9.7V904.1h-9.7v32.3Z" class="g2_3"/>
<path d="M682.5,936.4h9.7V904.1h-9.7v32.3Z" class="g2_3"/>
<path d="M61.5,888H856.6V871.9H61.5V888Z" class="g2_3"/>
<path d="M61.5,759H681.3V742.8H61.5V759Z" class="g2_3"/>
<path d="M61.5,791.2H856.7V775.1H61.5v16.1Z" class="g2_3"/>
<path d="M449.3,775.1h9.5V710.6h-9.5v64.5Z" class="g2_3"/>
<path d="M807.2,65.8V97.6M545.7,113.7h233M545.7,97.6H856.6M710.9,113.7v16M778.7,97.5v32.3M643,97.6v32.2" class="g4_3"/>
<path d="M807.2,81.5H857V65.3H807.2V81.5Z" class="g3_3"/>
<path d="M545.7,81.5H857M574.7,65.7V97.5M148.9,162.1v32.3M178,162.1v32.3M236.1,178v16.4m29,-16.3v16.2M323.2,162v32.3M352.3,162v32.3M381.4,162v32.3M732.4,162v32.3M700.5,162v32.3M672,178.1v16.2M643,178.1v16.2M613.9,178.1v16.2m-29,-16.2v16.2M555.8,178.1v16.2M526.7,178.1v16.2m-29,-16.2v16.2M468.6,178.1v16.2m-29,-16.2v16.2M410.5,178.1v16.2M352.4,129.7V162" class="g4_3"/>
<path d="M177.7,113.6v16.1m96.8,-16.1v16.1m58.1,-16.1v16.1" class="g5_3"/>
<path d="M61.4,145.9h96.9m0,0h194m.2,0h504M63,162H856.7M61.3,178.1H856.5m-795,16.2H856.6M61.5,210.4H856.6M61.3,242.7H856.5M478.3,258.8H856.5M61.4,323.3H856.6M61.4,339.5H856.6M61.4,710.5H856.6M61.4,694.4H831.5M637.7,709.9H831.4M637.7,695.1H831.4M61.5,726.7H856.6M61.5,775.1H856.8M61.5,791.2h795M61.4,839.6H856.5m-795,16.1h795M61.4,904.1H856.6M61.4,920.3H856.5M61.4,936.4H856.6M61.4,968.7H856.5M61.4,984.8H854.8M99.4,1000.9H856.5m-310.8,16.2H856.5m-561.1,16.1H856.7m-565,16.1H824.1M295,1065.5H856.6" class="g4_3"/>
<path d="M61.8,1033.2H294.9M61.8,1049.3H295.1M61.9,1065.5h233" class="g5_3"/>
<path d="M449.3,129.9v15.8m-87.2,.5V162m96.8,-32.1v15.8M90.8,210.4v32.3M255.6,194.3v48.4m96.8,-48.4v48.4M284.6,210.4v32.3m96.9,-32.3v32.3M546.1,210.4v32.3m67.8,-48.4v48.4M643,210.4v32.3m67.8,-32.3v32.3m67.8,-48.4v48.4M478.3,210.4v32.3M187.8,210.4v32.3M158.7,194.3v48.4m309.9,0v80.6m9.7,-80.6v80.6m29.1,-64.5v64.5" class="g4_3"/>
<path d="M585.4,258.9v63.7" class="g6_3"/>
<path fill-rule="evenodd" d="M579.7,258.8c0,-.1,0,-.2,.1,-.2c0,-.1,.1,-.1,.2,-.1c.1,0,.2,0,.2,.1c.1,0,.1,.1,.1,.2c0,.1,0,.2,-.1,.2c0,.1,-.1,.1,-.2,.1c-.1,0,-.2,0,-.2,-.1c-.1,0,-.1,-.1,-.1,-.2Z" class="g3_3"/>
<path fill-rule="evenodd" d="M579.7,323.3q0,-.1,.1,-.2c0,-.1,.1,-.1,.2,-.1c.1,0,.2,0,.2,.1q.1,.1,.1,.2c0,.1,0,.2,-.1,.3c0,0,-.1,.1,-.2,.1c-.1,0,-.2,-.1,-.2,-.1c-.1,-.1,-.1,-.2,-.1,-.3Z" class="g3_3"/>
<path d="M604.2,242.7v80.6m29.1,-64.5v64.5" class="g4_3"/>
<path d="M711.3,258.9v63.7" class="g6_3"/>
<path fill-rule="evenodd" d="M705.6,258.8c0,-.1,0,-.2,.1,-.2c0,-.1,.1,-.1,.2,-.1c.1,0,.2,0,.3,.1c0,0,.1,.1,.1,.2c0,.1,-.1,.2,-.1,.2c-.1,.1,-.2,.1,-.3,.1c-.1,0,-.2,0,-.2,-.1c-.1,0,-.1,-.1,-.1,-.2Z" class="g3_3"/>
<path fill-rule="evenodd" d="M705.6,323.3q0,-.1,.1,-.2c0,-.1,.1,-.1,.2,-.1c.1,0,.2,0,.3,.1c0,.1,.1,.1,.1,.2c0,.1,-.1,.2,-.1,.3c-.1,0,-.2,.1,-.3,.1c-.1,0,-.2,-.1,-.2,-.1c-.1,-.1,-.1,-.2,-.1,-.3Z" class="g3_3"/>
<path d="M730.1,242.7v80.6m29.1,-64.5v64.5" class="g4_3"/>
<path d="M835.9,258.9v63.7" class="g6_3"/>
<path fill-rule="evenodd" d="M831.5,258.8c0,-.1,0,-.2,.1,-.2c0,-.1,.1,-.1,.2,-.1c.1,0,.2,0,.3,.1c0,0,.1,.1,.1,.2c0,.1,-.1,.2,-.1,.2c-.1,.1,-.2,.1,-.3,.1c-.1,0,-.2,0,-.2,-.1c-.1,0,-.1,-.1,-.1,-.2Z" class="g3_3"/>
<path fill-rule="evenodd" d="M831.5,323.3q0,-.1,.1,-.2c0,-.1,.1,-.1,.2,-.1c.1,0,.2,0,.3,.1c0,.1,.1,.1,.1,.2c0,.1,-.1,.2,-.1,.3c-.1,0,-.2,.1,-.3,.1c-.1,0,-.2,-.1,-.2,-.1c-.1,-.1,-.1,-.2,-.1,-.3Z" class="g3_3"/>
<path d="M106.9,323.3V710.5M313.2,775v64.6m29,-64.5v64.5M536,775.1v64.5M681.2,775.1v64.5M429.8,710.6v64.5m19.4,-64.5v64.5m9.4,-64.5v64.5m19.7,-64.5v64.5m96.5,-64.5v64.5M681.4,710.6v64.5m29,-65.1v65.2" class="g4_3"/>
<path d="M556.7,726.8v47.6" class="g6_3"/>
<path fill-rule="evenodd" d="M555,726.8c0,-.1,0,-.2,.1,-.3c.1,0,.1,-.1,.2,-.1c.1,0,.2,.1,.3,.1c0,.1,.1,.2,.1,.3c0,.1,-.1,.1,-.1,.2c-.1,.1,-.2,.1,-.3,.1q-.1,0,-.2,-.1q-.1,-.1,-.1,-.2Z" class="g3_3"/>
<path fill-rule="evenodd" d="M555,775.2c0,-.1,0,-.2,.1,-.3c.1,0,.1,-.1,.2,-.1c.1,0,.2,.1,.3,.1c0,.1,.1,.2,.1,.3c0,0,-.1,.1,-.1,.2c-.1,.1,-.2,.1,-.3,.1q-.1,0,-.2,-.1c-.1,-.1,-.1,-.2,-.1,-.2Z" class="g3_3"/>
<path d="M663.2,726.8v47.6" class="g6_3"/>
<path fill-rule="evenodd" d="M661.5,726.8c0,-.1,.1,-.2,.1,-.3c.1,0,.2,-.1,.3,-.1c.1,0,.1,.1,.2,.1c.1,.1,.1,.2,.1,.3q0,.1,-.1,.2q-.1,.1,-.2,.1c-.1,0,-.2,0,-.3,-.1c0,-.1,-.1,-.1,-.1,-.2Z" class="g3_3"/>
<path fill-rule="evenodd" d="M661.5,775.2c0,-.1,.1,-.2,.1,-.3c.1,0,.2,-.1,.3,-.1c.1,0,.1,.1,.2,.1c.1,.1,.1,.2,.1,.3c0,0,0,.1,-.1,.2q-.1,.1,-.2,.1c-.1,0,-.2,0,-.3,-.1c0,-.1,-.1,-.2,-.1,-.2Z" class="g3_3"/>
<path d="M736,323.5V710.6" class="g4_3"/>
<path d="M808.3,339.7V709.9" class="g6_3"/>
<path fill-rule="evenodd" d="M812.1,339.6c0,0,0,-.1,.1,-.2c0,-.1,.1,-.1,.2,-.1c.1,0,.2,0,.2,.1c.1,.1,.1,.2,.1,.2c0,.1,0,.2,-.1,.3c0,0,-.1,.1,-.2,.1c-.1,0,-.2,-.1,-.2,-.1c-.1,-.1,-.1,-.2,-.1,-.3Z" class="g3_3"/>
<path fill-rule="evenodd" d="M812.1,710.6q0,-.1,.1,-.2c0,-.1,.1,-.1,.2,-.1c.1,0,.2,0,.2,.1q.1,.1,.1,.2c0,.1,0,.2,-.1,.3c0,0,-.1,.1,-.2,.1c-.1,0,-.2,-.1,-.2,-.1c-.1,-.1,-.1,-.2,-.1,-.3Z" class="g3_3"/>
<path d="M639.2,323.4V710.6M561.7,323.5V710.6m-68,-387.3V710.5M348.6,323.5v371" class="g4_3"/>
<path d="M711.5,339.7V709.9" class="g6_3"/>
<path fill-rule="evenodd" d="M715.2,339.6q0,-.1,.1,-.2q.1,-.1,.2,-.1c.1,0,.2,0,.3,.1c0,.1,.1,.1,.1,.2c0,.1,-.1,.2,-.1,.3c-.1,0,-.2,.1,-.3,.1c-.1,0,-.1,-.1,-.2,-.1c-.1,-.1,-.1,-.2,-.1,-.3Z" class="g3_3"/>
<path fill-rule="evenodd" d="M715.2,710.6c0,-.1,0,-.2,.1,-.2q.1,-.1,.2,-.1c.1,0,.2,0,.3,.1c0,0,.1,.1,.1,.2c0,.1,-.1,.2,-.1,.3c-.1,0,-.2,.1,-.3,.1c-.1,0,-.1,-.1,-.2,-.1c-.1,-.1,-.1,-.2,-.1,-.3Z" class="g3_3"/>
<path d="M831.5,323.5V710.6M361.6,839.5v64.9M72.1,904.2v32.2m77.5,-32.2v32.2m77.5,-32.2v32.2m77.5,-32.2v32.2M382,904.2v32.2m77.5,-32.2v32.2M537,904.2v32.2m77.5,-32.2v32.2M692,904.2v32.2m77.8,-32v32.2m-.7,16.7v15.5m-20,-15.6v15.5M729.3,953.2v15.5m-8.7,0v16.1m0,16.2v16.1m0,16.1v16.2m0,16.1v15.9M595.5,1017.1v16.1m0,16.2v16.1M614.9,953.2v15.5m154.2,16.1V1001m-20,-16.2V1001M729.3,984.8V1001m39.8,16.1v16.1m-20,-16.1v16.1m-19.9,-16.1v16.1m39.9,16.2v16.1m-20,-16.1v16.1m-19.8,-16.1v16.1M614.9,984.8V1001m0,16.1v16.1m0,16.2v16.1M508.3,936.4v16.8M421.4,936.4v16.9M352.9,936.4v16.9M285.1,936.4v16.8M217.6,936.4v16.7M169.3,936.4V953M98.9,936.4v16.9M527.2,936.4v16.8M459.6,936.6v16.7M682.2,936.4v16.8M604.7,936.6v16.7" class="g4_3"/>
<path d="M497.8,1017.1l50.4,.4v-64l-50.4,-.3Z" class="g7_3"/>
<path d="M61.7,1016.3l436.1,.1V953.3L61.6,953.2m.6,15.5H497.3M61.9,984.8H497.5M61.9,1001H497.5M140.3,968.7v16.2m67.8,-31.7v63.3M352.9,953.3v63.4m-20.1,-.1v64.9m-17.9,-65v64.9m-19.6,-64.9v65m135.4,-64.7v64.7M140.3,1000.4v15.9M285.6,968v16.8m0,15.6v16m260.1,33H856.5M548.3,984.8H856.6m-426,16.2v16.1m.2,-48.4v16.1M284.5,710.5v64.6" class="g4_3"/>
<path d="M352.3,210.6h96.9V194.5H352.3v16.1Z" class="g3_3"/>
<path d="M613.6,839.6v64.5" class="g4_3"/>
<path d="M61.5,81.5H545.6M61.8,97.7H545.6M61.9,113.8H545.6" class="g5_3"/>

<path d="M561.7,710.6h77.5V694.5H561.7v16.1Z" class="g3_3"/>
<path d="M613.4,707.1h18.3v-8.9H613.4v8.9Z" class="g7_3"/>
<path fill-rule="evenodd" d="M631,696.2l6.7,6.2l-6.7,6.7Z" class="g7_3"/>
<path d="M546.4,1016.4H497.2" class="g4_3"/>
<path d="M546.6,1080.7h1.7v-56.1h-1.7v56.1Z" class="g7_3"/>
<path d="M303.6,65.5V130M61.7,1081.2H856.6V65.8H61.7ZM71.9,146.1v15.8M817,146.1v15.7M293.4,178.1v16.1" class="g4_3"/>
<g clip-path="url(#c1_3)">
<path d="M403.5,1087.9c6.5,5.2,14.1,5.2,22.4,1.9c7.1,-2.8,17.3,-11,26.8,-5.5c-6.3,-2,-9.5,.5,-11.7,2c-5,3.4,-11.5,8,-17.4,9.5c-4.4,1.1,-7.7,1.7,-12.5,-1c-3.6,-1.9,-4.6,-4.3,-7.6,-6.9" class="g8_3"/>
<path d="M403.5,1087.9c6.5,5.2,14.1,5.2,22.4,1.9c7.1,-2.8,17.3,-11,26.8,-5.5c-6.3,-2,-9.5,.5,-11.7,2c-5,3.4,-11.5,8,-17.4,9.5c-4.4,1.1,-7.7,1.7,-12.5,-1c-3.6,-1.9,-4.6,-4.3,-7.6,-6.9Z" class="g9_3"/>
</g>
<path d="M548.4,953.2v128.3" class="g4_3"/>
<path d="M235.8,97.7v16.1M255.1,97.7v16.1M477.9,97.5v16.1M497.3,97.5v16.1" class="g5_3"/>
<path d="M545.7,65.7v64.1M61.4,129.7H856.5M759.7,936.4v16.8m-262.6,0H856.6m-310.1,0v128.3M158.3,129.8v16.1m10.1,-16.1v16.1" class="g4_3"/>

<path d="M265.9,1171.8H631.7v-62.6H265.9v62.6Z" class="gb_3"/>
</svg>